<?xml version="1.0" encoding="utf-8"?>
<!-- Generator: Adobe Illustrator 20.0.0, SVG Export Plug-In . SVG Version: 6.00 Build 0)  -->
<svg width="26" height="26" version="1.1" id="レイヤー_1" xmlns="http://www.w3.org/2000/svg" xmlns:xlink="http://www.w3.org/1999/xlink" preserveAspectRatio="none" x="0px"
	 y="0px" viewBox="0 0 36.891 32.711" style="enable-background:new 0 0 36.891 32.711;" xml:space="preserve">
<style type="text/css">
	.st0{fill:#231815;}
</style>
<path class="st0" d="M32.688,24.266H13.682L9.015,1.6H0V0h10.318l1.407,6.833h25.165L32.688,24.266z M14.985,22.667h16.443
	l3.431-14.233H12.055L14.985,22.667z"/>
<path class="st0" d="M14.936,32.711c-2.096,0-3.802-1.705-3.802-3.801s1.706-3.801,3.802-3.801s3.801,1.705,3.801,3.801
	S17.032,32.711,14.936,32.711z M14.936,26.708c-1.214,0-2.202,0.988-2.202,2.202s0.988,2.202,2.202,2.202
	c1.214,0,2.202-0.988,2.202-2.202S16.15,26.708,14.936,26.708z"/>
<path class="st0" d="M31.69,32.711c-2.096,0-3.802-1.705-3.802-3.801s1.706-3.801,3.802-3.801s3.801,1.705,3.801,3.801
	S33.787,32.711,31.69,32.711z M31.69,26.708c-1.214,0-2.202,0.988-2.202,2.202s0.988,2.202,2.202,2.202
	c1.214,0,2.202-0.988,2.202-2.202S32.904,26.708,31.69,26.708z"/>
</svg>
